<?xml version="1.0" encoding="UTF-8"?>
<svg xmlns="http://www.w3.org/2000/svg" viewBox="0 0 495.62 881.41">
  <g id="a" data-name="레이어 2">
    <path d="m284.11,391.93c-.26,1.8-1.36,9.47,3.56,14.59.67.7,3.24,3.29,7.3,3.69.34.03,5.93.49,9.44-3.69,1.2-1.44,1.67-2.83,2.14-4.25,1.73-5.22.56-9.78.18-11.08-.21-.72-1.07-3.52-3.38-6.46-1.46-1.87-5.68-7.24-10.33-6.65-5.5.7-8.25,9.31-8.9,13.85Z" style="fill: none; stroke: #000; stroke-miterlimit: 10;"/>
    <path d="m303.51,444.93c9.61-9.42,28.84-15.33,28.84-15.33,2.67-1.85-2.67-4.62-2.67-4.62h-5.7l-8.19-7.2c-6.41,3.97-8.34,11.45-8.34,11.45-6.65,10.34-11.07,12.19-11.07,12.19-20.65-16.9-32.58-12.74-32.58-12.74,0,0-3.38,1.01-1.42,4.29,0,0,6.41-1.98,12.46,2.45" style="fill: none; stroke: #000; stroke-miterlimit: 10;"/>
    <path d="m300.49,444.93s10.5-13.29,12.11-24.56" style="fill: none; stroke: #000; stroke-miterlimit: 10;"/>
    <path d="m306.54,448.07l24.75-9.23s12.2-3.6,4.45,6.09c0,0,7.06-6.62,0-10.34,0,0-7.12.65-15.13,4.25" style="fill: none; stroke: #000; stroke-miterlimit: 10;"/>
    <path d="m333.1,431.35s3.08-.36,2.63,3.23" style="fill: none; stroke: #000; stroke-miterlimit: 10;"/>
    <path d="m320.61,443.98s3.74,13.23,3.92,20.15" style="fill: none; stroke: #000; stroke-miterlimit: 10;"/>
    <path d="m334.44,438.23s2.63,20.73,1.34,27.56c0,0-1.29,7.85-19.45,29.73,0,0-3.83,6.28-8.01,8.96l-8.72-7.02,4.98-4.99-4.98,2.77-1.14-2.4s1.14-3.32,7.19-3.88l3.38.18s2.05-.31,3.56-2.31c8.63-10.9,13.53-25.67,13.53-25.67" style="fill: none; stroke: #000; stroke-miterlimit: 10;"/>
    <path d="m262.39,432.96s-2.85,3.01-2.14,4.48c0,0-5.16,3.74-1.25,6.53l1.96.95s14.06-3.32,21.01,0" style="fill: none; stroke: #000; stroke-miterlimit: 10;"/>
    <path d="m262.92,438.23s4.93-.69,14.53,1.62" style="fill: none; stroke: #000; stroke-miterlimit: 10;"/>
    <path d="m299.6,449.08s-6.68,4.34-9.97,11.45c0,0-1.64,5.54-5.81,7.39" style="fill: none; stroke: #000; stroke-miterlimit: 10;"/>
    <path d="m307.46,452.04s-7.6,4.89-6.97,9.6-8.78,8.49-8.78,8.49" style="fill: none; stroke: #000; stroke-miterlimit: 10;"/>
    <path d="m318.11,452.04s-.89,7.66-8.72,11.08-6.05,9.42-6.05,9.42" style="fill: none; stroke: #000; stroke-miterlimit: 10;"/>
    <path d="m282.86,472.53l-3.2-3.14v-5.26c-5.7-9.33-5.34-19.21-5.34-19.21,0,0-2.4,16.25-1.6,23.08,0,0,7.57,16.07,14.78,20.22l10.97,4.62" style="fill: none; stroke: #000; stroke-miterlimit: 10;"/>
    <path d="m278.59,465.89s-2.68,2.4-4.27,4.25" style="fill: none; stroke: #000; stroke-miterlimit: 10;"/>
    <path d="m262.92,444.93s-1.87,20.17,0,26.43c0,0,3.52,11.98,20.9,26.29,0,0,4.56-.09,6.52,6.83,0,0,4.27,4.99,10.15,7.02,0,0,4.69,1.11,6.97-2.03l.86-4.99" style="fill: none; stroke: #000; stroke-miterlimit: 10;"/>
    <line x1="297.44" y1="502.08" x2="307.46" y2="509.47" style="fill: none; stroke: #000; stroke-miterlimit: 10;"/>
    <line x1="299.59" y1="506.88" x2="305.66" y2="510.98" style="fill: none; stroke: #000; stroke-miterlimit: 10;"/>
    <line x1="297.44" y1="507.62" x2="300.49" y2="511.5" style="fill: none; stroke: #000; stroke-miterlimit: 10;"/>
    <path d="m320.61,449.82s-.89,5.36,0,10.34c0,0-1.07,2.86,2.85,5.72" style="fill: none; stroke: #000; stroke-miterlimit: 10;"/>
    <path d="m327.66,483.4s1.81,19.21,17.03,42.02c0,0,55.31,114.89,57.27,134.93,0,0,4.42,23.36,5.06,28.44,0,0-.52,4.43-6.48.74,0,0-1.6,6.56-11.22,2.77,0,0-3.12-4.66-9.44,1.18,0,0-5.62-2.7-10.65,0,0,0-2.8,1.32-5.2-4.13s-6.59,2.95-6.59,2.95c0,0-4.9,3.23-11.04-2.4-6.14-5.63-3.74,1.94-5.34,2.4s-7.03-2.03-6.59-3.32-6.05-2.03-7.83,1.11-6.14-4.99-6.59-5.17-4.54-1.66-11.57,1.48-5.88-4.8-5.88-4.8c0,0-3.56,3.23-8.01,1.11s-8.28.28-6.94-4.99c1.34-5.26-2.4,4.8-12.46,3.32,0,0-6.05,4.16-9.79,1.48s-5.7.18-5.7.18c0,0-8.19,3.05-12.46-1.29-4.27-4.34-3.56-2.95-7.12.55,0,0-2.49,6.65-8.55.18l-5.88-.37s10.95-11.17,12.82.18c0,0,.8-12.47-13.89-2.03,0,0-3.2,4.8-6.94-2.77,0,0-4.9-3.32-8.37,1.85,0,0-6.85.37-3.03-10.16,0,0-3.65-.46-4.27,3.69,0,0-2.4-8.59-9.44-.74,0,0-9.88-.83-10.68-10.71,0,0-8.37-5.45-2.67,2.95,0,0-9.44-5.54,2.49-7.94,0,0,12.28-.55,22.97-20.68,0,0,43.8-91.69,44.95-100.65l18.69-53.4" style="fill: none; stroke: #000; stroke-miterlimit: 10;"/>
    <path d="m280.99,499.68s-14.66,39.61-18.9,53c0,0-16.71,60.48-25.07,76.82,0,0-12.02,33.24-20.83,34.9" style="fill: none; stroke: #000; stroke-miterlimit: 10;"/>
    <path d="m317.67,511.5s17.71,112.28,34.36,132.78c0,0,10.41,10.8,11.39,22.16" style="fill: none; stroke: #000; stroke-miterlimit: 10;"/>
    <path d="m318.38,555.45s22.08,72.48,22.16,98.43c0,0-6.73,19.91-1.87,26.96" style="fill: none; stroke: #000; stroke-miterlimit: 10;"/>
    <path d="m309.48,612.79s-3.92,14.13,3.03,23.27c6.94,9.14,3.74,13.85,3.74,13.85" style="fill: none; stroke: #000; stroke-miterlimit: 10;"/>
    <path d="m293.1,544.09s-2.14,77.56,1.07,91.6c0,0,7.03,10.99,1.78,19.58" style="fill: none; stroke: #000; stroke-miterlimit: 10;"/>
    <path d="m287.05,593.22s-14.78,52.82-10.86,65.19" style="fill: none; stroke: #000; stroke-miterlimit: 10;"/>
    <path d="m348.29,592.48s39.17,46.26,34.89,65.93c0,0,1.78,10.99-1.96,16.62" style="fill: none; stroke: #000; stroke-miterlimit: 10;"/>
    <path d="m266.85,426.77s-2.36-5.98,12.53-8.99c0,0,9.05-.29,10.46-3.74,0,0,2.17-3.9,0-5.71" style="fill: none; stroke: #000; stroke-miterlimit: 10;"/>
    <path d="m303.16,408.33s-.25,5.4.96,6.96" style="fill: none; stroke: #000; stroke-miterlimit: 10;"/>
    <path d="m304.12,412.79s15.08,1.28,21.53,7.58c0,0,1.91.74,2.01,4.61" style="fill: none; stroke: #000; stroke-miterlimit: 10;"/>
    <path d="m285.21,420.37s6.48,3.06,10.43,2.23" style="fill: none; stroke: #000; stroke-miterlimit: 10;"/>
    <path d="m302.45,420.37s1.42,1.63,5.87-2.82" style="fill: none; stroke: #000; stroke-miterlimit: 10;"/>
    <path d="m296.68,434.58s-1.57,4.57-.28,6.83" style="fill: none; stroke: #000; stroke-miterlimit: 10;"/>
    <path d="m308.32,395.68c-3.04,13.04,2.32,9.39,2.32,9.39-3.85-1.88-2.32-5.01-2.32-5.01,5-2.3,1.23-7.74,1.23-7.74,1.31,2.7,3.04,1.81,3.04,1.81-3.4-4.88-3.24-10.77-3.24-10.77-.5-10.02-10.39-12.31-10.39-12.31-3.14-2.61-7.26,1.46-7.26,1.46,0,0-7.94-.12-9.74,5.52,0,0-2.03,11.81,0,16.1,0,0-1.32,4.67,0,7.18,0,0,2.31,2.92-4.52,2.92,0,0-3.11,3.29,2.12,4.1,0,0-4.12-2.95.6-2.43,0,0,4.65.05,2.82-7.72l.83-2.71" style="fill: none; stroke: #000; stroke-miterlimit: 10;"/>
  </g>
  <g id="b" data-name="레이어 3">
    <path d="m195.17,372.51v6.47s-3.23,4.79,0,10.27,7.41,8.82,10.64,8.72c0,0,10.64-.22,13.77-8.72,0,0,1.46-1.71,1.67-4.01,0,0,3.34-.84,1.25-6.26,0,0,.94-3.97-1.46-2.5,0,0-.22-4.28-4.39-5.22,0,0-5.52-.94-3.54-6.89,0,0-1.77-3.65-5.84,0,0,0-3.34-5.53-6.68.83,0,0-5.43,3.03-5.43,7.3Z" style="fill: none; stroke: #000; stroke-miterlimit: 10;"/>
    <path d="m195.17,372.51s-2.71-4.49-1.44-6.05,0-4.32,0-4.32c4.72-9.43,10.41-3.62,10.41-3.62,0,0,.63-6.47,6.68-4.17,0,0,8.97.24,11.48,8.83,0,0,.42,1.39,2.09,3.06,0,0,.02,2.5-1.19,5.01,0,0-1.3,1.46,0,5.43" style="fill: none; stroke: #000; stroke-miterlimit: 10;"/>
    <path d="m195.17,374.81s-2.82-2.21-2.71,3.23c0,0-1.41,4.68,0,6.17" style="fill: none; stroke: #000; stroke-miterlimit: 10;"/>
    <path d="m220.43,379.28s1.46,2.1,0,3.87" style="fill: none; stroke: #000; stroke-miterlimit: 10;"/>
    <path d="m197.89,394.14v5.3l5.22,22.12,4.38,13.03,5.01-18.04,3.13-11.9,3.13,1.46,1.67-6.47s2.18-4.67-2.52-7.32" style="fill: none; stroke: #000; stroke-miterlimit: 10;"/>
    <path d="m197.89,399.43l7.51,3.34h4.01l6.43-4.8s1.36,4.8-.21,6.68l-1.22,4.65-4.99-3.4-4.01-.63-5.19,4.03-2.33-9.87Z"/>
    <path d="m196.84,396.72l-5.01,10.44h-4.8l13.15,32.69,6.95,14.89,12.25-32,6.89-10.93-5.84-1.57v-10.6s13.15,1.67,23.37,6.05c0,0,10.75,34.96,11.48,41.11,0,0,.73,9.35-3.13,14.28l-12.1,21.83-4.59,6.47s-11.79-14.4-16.49-14.61l13.77-16.92,7.1-8.77,4.38-4.16" style="fill: none; stroke: #000; stroke-miterlimit: 10;"/>
    <line x1="239.84" y1="449.08" x2="236.08" y2="432.96" style="fill: none; stroke: #000; stroke-miterlimit: 10;"/>
    <polyline points="237.96 420.37 236.08 438.95 237.02 452.04" style="fill: none; stroke: #000; stroke-miterlimit: 10;"/>
    <path d="m240.04,482.91s6.68,19.45,5.01,23.97c0,0-15.86,7.6-34.02,4.81,0,0-33.08,7.09-37.15-2.13l2.92-16.71,1.67-11.48" style="fill: none; stroke: #000; stroke-miterlimit: 10;"/>
    <path d="m189.12,474.25l-2.09,4.06,3.55,3.06h-2.71v2.49l-4.38,3.13s-5.84-4.7,2.3-12.73,3.34,0,3.34,0Z" style="fill: none; stroke: #000; stroke-miterlimit: 10;"/>
    <path d="m183.49,486.98l-9.6-10.64c-12-10.85-14.19-15.25-14.19-15.25,1.15-6.28-2.09-7.03-2.09-7.03,0,0,11.27-43.56,14.19-47.01,0,0,20.66-7.83,23.37-7.72" style="fill: none; stroke: #000; stroke-miterlimit: 10;"/>
    <line x1="181.46" y1="432.96" x2="175.56" y2="454.06" style="fill: none; stroke: #000; stroke-miterlimit: 10;"/>
    <line x1="175.56" y1="417.78" x2="181.46" y2="441.42" style="fill: none; stroke: #000; stroke-miterlimit: 10;"/>
    <path d="m218.97,474.77s8.35,7.51,10.23,13.25l2.72-2.72" style="fill: none; stroke: #000; stroke-miterlimit: 10;"/>
    <polyline points="187.87 481.37 183.8 478.83 185.78 474.25" style="fill: none; stroke: #000; stroke-miterlimit: 10;"/>
    <path d="m225.44,485.31s-.53,5.63-6.48,8.97l-9.36,7.79,1.43,9.61" style="fill: none; stroke: #000; stroke-miterlimit: 10;"/>
    <polyline points="209.6 502.08 207.13 499.68 213.33 496.58 202.69 499.33 202.69 496.58 213.33 492.85 201.23 494.29 200.39 491.16 213.33 489.38 201.85 489.38 200.39 486.98 213.33 484.27 213.33 478.83 220.75 476.48" style="fill: none; stroke: #000; stroke-miterlimit: 10;"/>
    <path d="m202.27,471.36s6.37,1.75,9.39,2.9l1.04,2.23h-8.77s3.87,2.35,6.63,2.35h2.76l-.83,2.57s-6.05.99-11.06-1.1l11.9,3.97-10.77,2.26s-8.43-2.11-11.98-5.16" style="fill: none; stroke: #000; stroke-miterlimit: 10;"/>
    <path d="m180.56,514.29s.73,28.2,4.17,33.42c0,0,.73,18.37,3.13,20.87,0,0-1.25,22.54,2.71,27.34,0,0-1.04,10.02,2.09,14.61,0,0-3.76,9.91,2.5,17.53,0,0-1.57,2.81,6.78,3.29,0,0,5.07-.55,4.8,0" style="fill: none; stroke: #000; stroke-miterlimit: 10;"/>
    <line x1="208.32" y1="536.45" x2="211.24" y2="622.23" style="fill: none; stroke: #000; stroke-miterlimit: 10;"/>
    <path d="m208.82,551.06c.13.83,5.05,65.8,5.05,65.8" style="fill: none; stroke: #000; stroke-miterlimit: 10;"/>
    <path d="m237.7,509.56s-1.34,53.08-4.04,66.17" style="fill: none; stroke: #000; stroke-miterlimit: 10;"/>
    <path d="m195.9,629.95s-7.09,9.39-5.53,14.4c0,0,1.77,4,5.53,3.25" style="fill: none; stroke: #000; stroke-miterlimit: 10;"/>
    <line x1="190.37" y1="644.34" x2="191.11" y2="651.72" style="fill: none; stroke: #000; stroke-miterlimit: 10;"/>
    <path d="m232.74,542.65s-5.16,17.59-11.56,23.64" style="fill: none; stroke: #000; stroke-miterlimit: 10;"/>
    <path d="m230.44,562.12s-1.97,6.26-5,10.02" style="fill: none; stroke: #000; stroke-miterlimit: 10;"/>
    <path d="m190.58,562.95s4.8,9.5,11.37,11.69" style="fill: none; stroke: #000; stroke-miterlimit: 10;"/>
    <path d="m193.67,583.96s2.24,10.4,6.72,10.51" style="fill: none; stroke: #000; stroke-miterlimit: 10;"/>
    <line x1="207.13" y1="454.74" x2="208.32" y2="472.53" style="fill: none; stroke: #000; stroke-miterlimit: 10;"/>
    <path d="m200.39,470.68l4.59-2.67-2.3-3.88s-6.26,4.82-11.48,4.76l-14.82-19.07" style="fill: none; stroke: #000; stroke-miterlimit: 10;"/>
    <line x1="191.21" y1="468.89" x2="190.58" y2="470.68" style="fill: none; stroke: #000; stroke-miterlimit: 10;"/>
  </g>
  <g id="c" data-name="레이어 5">
    <path d="m111.92,216.05v564.32h295.1V216.05H111.92Zm274.03,502.61h-252.7v-351.13c0-69.78,56.57-126.35,126.35-126.35s126.35,56.57,126.35,126.35v351.13Z" style="fill: #f6f7cf;"/>
  </g>
</svg>